<?xml version="1.0" standalone="no"?>
<!DOCTYPE svg PUBLIC "-//W3C//DTD SVG 20010904//EN"
 "http://www.w3.org/TR/2001/REC-SVG-20010904/DTD/svg10.dtd">
<svg version="1.0" xmlns="http://www.w3.org/2000/svg"
 width="1024.000000pt" height="1024.000000pt" viewBox="0 0 1024.000000 1024.000000"
 preserveAspectRatio="xMidYMid meet">

<g transform="translate(0.000000,1024.000000) scale(0.100000,-0.100000)"
fill="#000000" stroke="none">
<path d="M5055 8443 c-61 -17 -105 -76 -105 -143 l0 -40 154 0 c85 0 161 3
170 6 37 14 7 107 -48 149 -27 20 -49 28 -93 30 -32 2 -67 1 -78 -2z m96 -53
c27 -15 24 -28 -8 -37 -57 -15 -103 7 -69 33 23 17 50 18 77 4z"/>
<path d="M4723 8215 c-133 -27 -264 -69 -392 -124 -347 -150 -690 -447 -815
-706 -76 -156 -83 -261 -25 -381 32 -68 115 -166 160 -189 42 -22 117 -18 205
10 133 43 384 104 535 130 202 34 335 47 554 54 l190 6 -141 27 c-189 37 -366
58 -562 65 -90 3 -158 10 -150 14 34 19 190 39 308 39 180 0 318 -21 750 -115
85 -19 225 -45 310 -59 247 -40 445 -82 642 -136 258 -71 304 -67 391 29 187
209 145 449 -130 741 -262 278 -664 500 -1069 590 -130 29 -139 24 -44 -23
234 -116 442 -313 627 -592 91 -138 216 -386 201 -400 -2 -2 -30 42 -62 98
-234 411 -630 791 -918 882 -252 79 -561 -33 -905 -329 -172 -148 -331 -332
-453 -523 -28 -46 -54 -83 -55 -83 -16 0 66 152 153 285 86 133 165 229 287
350 156 157 312 265 458 321 129 49 118 54 -50 19z m287 -77 c-290 -177 -478
-339 -690 -593 -41 -49 -84 -99 -94 -110 -34 -36 19 52 83 138 168 226 397
428 615 542 89 46 151 63 86 23z m1134 -310 c179 -113 371 -321 437 -475 28
-65 18 -77 -16 -18 -83 140 -239 318 -398 451 -48 41 -85 74 -81 74 4 0 30
-14 58 -32z m-2525 -910 c30 -32 49 -58 43 -58 -23 0 -94 75 -118 124 -24 50
-24 50 -2 21 13 -16 47 -55 77 -87z m3096 70 c-19 -36 -103 -128 -119 -128 -5
0 13 24 41 53 27 28 58 66 68 84 24 42 32 35 10 -9z"/>
<path d="M4880 6940 c-182 -14 -351 -37 -550 -76 -177 -35 -478 -110 -493
-124 -11 -10 211 -68 304 -79 100 -13 179 -2 411 58 237 62 340 80 488 87 185
10 375 -16 650 -88 63 -17 144 -37 180 -45 90 -20 258 -18 350 2 86 20 180 53
180 64 0 8 -57 23 -340 87 -384 87 -566 112 -860 118 -107 3 -251 1 -320 -4z"/>
<path d="M3707 6624 c-4 -49 -16 -228 -27 -399 -10 -170 -22 -334 -25 -364
l-6 -54 23 17 c49 35 202 107 285 135 171 56 437 106 708 133 168 16 789 16
950 -1 447 -46 754 -129 918 -248 26 -20 50 -34 52 -31 4 4 -2 111 -29 543
-21 328 -25 355 -44 355 -8 0 -40 -8 -70 -17 l-55 -18 6 -125 c12 -224 20
-530 15 -530 -2 0 -31 11 -64 24 -52 21 -62 30 -85 75 -64 123 -147 203 -275
263 -65 31 -76 33 -179 33 -108 0 -113 -1 -187 -38 -82 -40 -170 -112 -194
-158 l-15 -29 -283 0 c-539 0 -894 -40 -1168 -131 -133 -44 -129 -43 -124 -26
3 6 7 155 11 330 l6 317 -27 11 c-15 5 -46 12 -69 16 l-42 5 -6 -88z m2216
-315 c35 -11 86 -37 112 -57 56 -43 131 -129 122 -139 -4 -3 -62 3 -129 15
-169 30 -262 41 -400 49 -65 3 -118 9 -118 13 0 10 73 76 101 91 98 52 209 62
312 28z m-2158 -326 c-8 -34 -36 -30 -30 5 2 15 7 77 10 137 3 61 9 121 13
135 8 29 15 -244 7 -277z m2738 79 c5 -79 3 -102 -6 -99 -9 3 -12 47 -13 158
-2 166 9 134 19 -59z"/>
<path d="M3306 6127 c-56 -31 -79 -67 -84 -130 -9 -113 66 -186 178 -173 57 7
57 6 92 -32 19 -21 43 -53 53 -70 31 -51 65 -54 65 -4 0 36 -33 89 -78 129
-30 26 -34 34 -23 47 7 8 15 42 18 74 5 50 2 66 -17 100 -26 46 -83 82 -131
82 -19 0 -52 -10 -73 -23z m115 -58 c25 -25 21 -40 -14 -57 -29 -14 -70 -7
-89 15 -10 13 -8 19 15 39 34 29 61 30 88 3z"/>
<path d="M6820 6139 c-32 -13 -68 -47 -86 -81 -18 -36 -18 -106 1 -142 15 -29
15 -31 -12 -52 -15 -13 -31 -23 -35 -24 -15 0 -58 -88 -58 -118 0 -48 23 -40
70 24 49 65 95 97 121 83 54 -28 164 13 195 73 20 40 21 116 1 154 -40 77
-124 112 -197 83z m98 -65 c48 -34 6 -87 -54 -67 -44 15 -54 40 -25 64 28 23
49 24 79 3z"/>
<path d="M4770 6023 c-19 -1 -87 -8 -150 -14 -396 -36 -758 -139 -885 -250
-43 -38 -78 -104 -94 -177 -12 -56 -15 -162 -5 -162 3 0 23 13 43 28 65 51
106 71 177 88 129 30 263 0 390 -87 l42 -28 6 31 c8 41 -14 65 -105 113 -81
42 -201 75 -278 75 -40 0 -52 3 -41 10 24 16 196 12 264 -6 33 -9 85 -27 114
-41 l54 -25 36 34 c21 19 53 47 73 62 88 65 303 146 446 169 l73 12 0 32 c0
46 16 81 51 114 l31 29 -103 -2 c-57 0 -120 -3 -139 -5z m40 -113 c-8 -5 -24
-10 -35 -10 -11 -1 -83 -21 -160 -46 -226 -73 -273 -86 -250 -68 77 59 299
130 420 133 29 0 36 -2 25 -9z"/>
<path d="M5074 6020 c-37 -15 -74 -68 -74 -107 0 -28 8 -43 36 -69 32 -31 33
-34 14 -34 -44 0 -228 -42 -327 -75 -207 -69 -307 -136 -343 -231 -27 -73 -25
-147 5 -269 37 -149 32 -250 -19 -368 -15 -34 -17 -77 -14 -345 3 -335 4 -338
67 -405 59 -65 29 -62 666 -65 399 -2 594 1 625 8 72 18 115 52 147 117 l28
58 3 296 c4 281 3 299 -17 345 -50 119 -53 210 -10 372 32 125 33 161 3 254
-26 80 -79 123 -233 190 -115 49 -362 118 -425 118 -30 0 -33 14 -8 32 102 72
-5 226 -124 178z m74 -66 c23 -16 29 -48 12 -59 -5 -3 -10 -1 -10 4 0 14 -47
14 -55 1 -11 -18 -25 -11 -25 13 0 26 10 42 30 50 23 8 24 8 48 -9z m25 -261
c9 -9 17 -30 17 -49 0 -40 -21 -54 -79 -54 -33 0 -44 5 -57 26 -46 69 55 134
119 77z m412 -184 c71 -13 112 -40 131 -85 19 -46 20 -1156 1 -1193 -6 -14
-28 -34 -47 -45 -31 -19 -55 -21 -216 -24 l-181 -4 -1 49 c-4 112 -120 175
-227 123 -57 -28 -85 -70 -85 -128 l0 -44 -182 4 c-206 3 -232 10 -260 68 -17
32 -18 82 -18 600 0 518 1 568 18 599 22 45 56 69 112 80 67 13 884 13 955 0z
m-400 -1264 c46 -46 20 -102 -52 -112 -58 -8 -103 20 -103 63 0 68 104 101
155 49z"/>
<path d="M4710 4845 l0 -625 25 0 25 0 0 625 0 625 -25 0 -25 0 0 -625z"/>
<path d="M4830 4845 l0 -625 30 0 30 0 0 625 0 625 -30 0 -30 0 0 -625z"/>
<path d="M4960 4929 l0 -540 28 3 27 3 3 538 2 537 -30 0 -30 0 0 -541z"/>
<path d="M5090 4936 l0 -533 25 5 25 4 0 529 0 529 -25 0 -25 0 0 -534z"/>
<path d="M5217 5463 c-4 -3 -7 -246 -7 -540 l0 -533 30 0 30 0 0 540 0 540
-23 0 c-13 0 -27 -3 -30 -7z"/>
<path d="M5340 4845 l0 -625 30 0 30 0 0 625 0 625 -30 0 -30 0 0 -625z"/>
<path d="M5470 4845 l0 -625 30 0 30 0 0 625 0 625 -30 0 -30 0 0 -625z"/>
<path d="M4598 5453 c-17 -4 -18 -42 -18 -619 l0 -614 30 0 30 0 -2 617 c-2
401 -6 617 -13 618 -5 2 -18 1 -27 -2z"/>
<path d="M5613 5453 c-10 -4 -13 -137 -13 -619 l0 -615 28 3 27 3 3 607 c2
571 1 608 -15 616 -10 5 -24 7 -30 5z"/>
<path d="M5241 6018 c35 -29 69 -91 69 -127 l0 -36 73 -12 c174 -28 387 -118
506 -214 l63 -52 57 26 c31 15 82 34 113 42 72 20 222 25 240 7 9 -9 3 -12
-31 -12 -98 0 -247 -49 -336 -110 -38 -26 -45 -36 -45 -64 0 -18 3 -35 6 -39
3 -3 25 8 48 24 67 49 144 80 232 91 128 18 241 -17 341 -105 l36 -32 -6 90
c-10 132 -29 188 -86 245 -153 153 -614 271 -1121 286 -147 4 -172 3 -159 -8z
m399 -133 c96 -31 236 -92 228 -101 -4 -3 -84 20 -180 50 -95 30 -195 62 -223
70 l-50 16 70 -4 c39 -3 108 -17 155 -31z"/>
<path d="M3329 5657 c-36 -19 -50 -36 -76 -88 -18 -35 -39 -98 -46 -140 l-14
-77 66 -7 c81 -9 160 -37 226 -81 35 -23 52 -29 56 -21 4 7 12 57 18 112 19
169 -10 264 -95 305 -52 26 -81 25 -135 -3z"/>
<path d="M6772 5663 c-89 -44 -118 -150 -93 -346 5 -38 12 -71 14 -74 3 -2 35
13 72 36 67 40 171 71 239 71 33 0 36 3 36 28 0 88 -43 215 -87 254 -26 24
-87 48 -120 48 -15 0 -43 -8 -61 -17z"/>
<path d="M3902 5479 c-115 -19 -229 -105 -278 -212 -26 -55 -29 -73 -29 -162
0 -91 3 -105 29 -158 60 -117 186 -209 306 -223 110 -12 233 37 314 127 74 82
91 128 91 244 -1 81 -5 109 -22 148 -79 173 -237 264 -411 236z m184 -104
c153 -75 217 -255 143 -403 -35 -70 -71 -105 -148 -140 -73 -33 -186 -29 -253
11 -103 60 -157 152 -158 265 0 114 40 186 136 248 94 60 183 66 280 19z"/>
<path d="M3900 5341 c-148 -45 -220 -200 -156 -337 30 -64 81 -106 156 -129
67 -20 101 -17 176 20 117 57 162 203 99 324 -46 89 -183 150 -275 122z m133
-75 c41 -17 91 -74 107 -121 14 -41 7 -107 -16 -145 l-14 -25 2 35 c3 33 1 36
-53 62 -30 14 -63 38 -72 52 -10 14 -24 26 -33 26 -8 0 -44 -26 -80 -57 -46
-41 -64 -64 -65 -82 l-1 -26 -13 30 c-17 36 -19 113 -4 152 14 37 57 82 94 99
39 17 107 18 148 0z"/>
<path d="M6168 5467 c-107 -40 -181 -109 -232 -216 -27 -58 -31 -76 -30 -151
1 -119 28 -186 108 -266 97 -96 220 -132 346 -100 115 30 208 107 259 215 23
49 26 69 26 156 0 88 -3 107 -27 158 -33 69 -116 154 -185 188 -59 29 -205 38
-265 16z m227 -87 c67 -33 112 -77 146 -145 29 -60 31 -70 27 -144 -5 -91 -30
-143 -100 -208 -63 -57 -121 -77 -211 -71 -128 8 -216 74 -258 193 -24 70 -24
130 1 198 62 166 246 248 395 177z"/>
<path d="M6220 5341 c-74 -24 -138 -80 -164 -143 -9 -21 -16 -66 -16 -100 0
-87 39 -156 113 -198 68 -39 121 -46 189 -26 166 49 230 240 125 377 -54 71
-173 114 -247 90z m136 -77 c44 -21 88 -74 103 -125 10 -33 9 -50 -4 -94 -8
-30 -20 -57 -27 -61 -8 -5 -9 -2 -4 11 13 34 -4 54 -60 72 -42 13 -60 25 -75
50 -29 46 -58 44 -104 -9 -19 -23 -38 -54 -41 -68 -12 -53 -15 -56 -30 -21
-20 48 -18 125 6 171 40 78 153 113 236 74z"/>
<path d="M3070 5270 c-206 -29 -370 -154 -446 -340 -29 -72 -46 -177 -38 -231
11 -68 60 -129 134 -167 62 -32 69 -34 150 -30 96 5 155 27 260 98 117 79 162
95 276 95 98 0 103 -1 186 -42 211 -105 361 -310 472 -645 86 -259 85 -257
116 -273 40 -21 72 -19 98 5 22 20 22 26 22 271 0 265 -6 305 -48 328 -32 17
-87 13 -113 -8 -21 -16 -25 -31 -29 -98 l-5 -78 -70 190 c-95 257 -104 270
-257 355 -156 87 -267 260 -268 416 0 47 -11 60 -87 98 -98 49 -242 72 -353
56z m-70 -84 c0 -2 -22 -18 -49 -36 -63 -40 -169 -152 -204 -214 -15 -26 -37
-75 -49 -109 -27 -75 -36 -52 -13 35 31 124 122 235 238 293 71 36 77 38 77
31z m1215 -906 c8 -14 13 -310 4 -310 -18 0 -47 245 -35 294 7 27 20 34 31 16z"/>
<path d="M6981 5269 c-75 -11 -182 -52 -227 -86 -28 -21 -31 -28 -32 -82 -1
-76 -16 -131 -55 -204 -38 -72 -143 -172 -229 -217 -96 -50 -121 -73 -153
-136 -30 -62 -88 -207 -133 -334 l-27 -75 -3 87 c-3 80 -5 89 -29 108 -44 34
-115 24 -138 -21 -12 -22 -15 -80 -15 -289 0 -247 1 -261 20 -280 23 -23 43
-25 89 -9 38 14 51 36 86 159 93 328 237 572 410 695 105 75 187 108 280 113
101 5 166 -17 279 -92 114 -77 167 -99 257 -104 99 -6 165 15 224 72 90 86 94
217 13 386 -108 224 -356 348 -617 309z m328 -111 c25 -12 79 -54 119 -94 84
-83 124 -159 129 -244 l3 -55 -23 61 c-13 34 -36 82 -51 108 -36 62 -139 171
-201 212 -56 39 -44 45 24 12z m-1261 -949 c3 -81 -15 -236 -29 -245 -10 -6
-13 309 -2 320 18 18 28 -7 31 -75z"/>
<path d="M3325 4626 c-54 -17 -128 -58 -194 -106 -80 -58 -151 -83 -246 -84
-44 -1 -96 2 -117 7 l-36 8 -7 -108 c-14 -201 11 -508 55 -677 43 -164 98
-249 188 -293 51 -25 67 -28 162 -28 121 0 172 13 232 58 50 37 103 136 114
210 7 55 -6 62 -25 12 -19 -54 -58 -95 -90 -95 -84 0 -128 164 -138 512 -9
328 17 487 86 522 100 52 187 -32 267 -257 38 -106 57 -126 169 -177 54 -24
93 -46 87 -48 -26 -8 -289 74 -339 106 -7 4 -20 47 -28 95 -18 104 -48 188
-76 213 -21 19 -21 18 -44 -9 -52 -60 -74 -249 -57 -489 15 -217 37 -288 88
-288 46 0 84 90 99 237 l7 72 60 -30 c82 -42 217 -84 343 -109 148 -28 147
-28 139 18 -11 63 -64 213 -107 297 -103 206 -245 355 -393 414 -68 26 -150
34 -199 17z m-184 -330 c-13 -111 -13 -364 -1 -486 4 -47 6 -87 5 -88 -9 -10
-27 89 -41 222 -13 119 -14 169 -5 250 10 98 37 213 47 203 3 -3 1 -48 -5
-101z"/>
<path d="M6796 4628 c-72 -10 -182 -68 -255 -134 -83 -76 -149 -164 -210 -283
-69 -135 -140 -351 -115 -351 33 1 200 33 277 54 71 19 202 71 257 103 3 2 11
-41 18 -94 15 -123 53 -206 94 -211 19 -2 31 3 43 21 63 96 73 592 15 725 -52
117 -108 32 -154 -229 -6 -33 -12 -39 -64 -62 -64 -29 -302 -100 -310 -93 -2
3 47 29 110 59 l114 54 43 114 c79 206 124 267 204 276 39 5 48 1 80 -26 20
-18 40 -46 46 -64 30 -95 42 -458 20 -655 -14 -129 -46 -250 -75 -279 -48 -48
-113 -16 -151 75 -18 44 -27 40 -19 -10 19 -124 73 -204 166 -246 75 -33 220
-42 304 -18 139 41 221 199 261 504 15 115 20 441 8 540 l-6 53 -41 -8 c-65
-13 -167 -8 -223 11 -29 10 -95 46 -146 81 -52 34 -104 68 -117 75 -33 18
-118 27 -174 18z m331 -327 c33 -139 15 -494 -28 -561 -8 -11 -9 -9 -4 10 3
14 9 108 12 210 5 166 -2 294 -24 425 -4 28 -4 29 11 11 8 -10 23 -53 33 -95z"/>
<path d="M4372 3894 c3 -86 3 -87 38 -115 73 -59 104 -62 670 -65 319 -2 542
1 585 7 88 13 158 43 190 81 22 26 25 39 25 104 l0 74 -755 0 -756 0 3 -86z
m1315 -25 c-34 -20 -548 -34 -824 -22 -142 6 -269 16 -283 22 -17 7 153 10
550 10 399 0 570 -3 557 -10z"/>
<path d="M4471 3051 c-11 -7 -7 -12 17 -25 17 -9 36 -25 42 -35 6 -12 10 -129
10 -305 0 -313 5 -287 -60 -336 -25 -19 -25 -19 130 -19 l155 0 -37 30 -38 31
0 123 0 122 103 5 c111 6 164 23 211 66 38 36 56 81 56 142 0 88 -41 150 -125
186 -33 15 -77 19 -245 21 -118 2 -211 0 -219 -6z m349 -54 c46 -23 70 -73 70
-146 0 -110 -48 -161 -150 -161 l-50 0 0 160 0 160 53 0 c28 0 63 -6 77 -13z"/>
<path d="M5130 3052 c0 -6 8 -13 18 -16 10 -4 28 -15 40 -27 22 -19 22 -25 22
-314 0 -319 3 -303 -57 -342 -15 -10 -20 -19 -13 -23 19 -11 340 -12 420 0
141 20 210 75 218 175 6 69 -1 96 -35 135 -28 34 -99 70 -137 70 -42 0 -35 12
25 42 96 48 130 124 90 205 -18 37 -31 49 -79 71 -55 26 -63 27 -284 30 -154
3 -228 1 -228 -6z m380 -60 c44 -21 60 -53 60 -117 0 -27 -6 -61 -13 -75 -18
-37 -72 -60 -139 -60 l-58 0 0 135 0 135 58 0 c34 0 71 -7 92 -18z m29 -331
c50 -26 71 -65 71 -133 0 -101 -55 -148 -173 -148 -50 0 -66 4 -71 16 -3 9 -6
79 -6 156 l0 141 69 -6 c40 -3 87 -15 110 -26z"/>
<path d="M4020 2040 c0 -93 1 -100 20 -100 16 0 20 7 20 35 0 28 4 35 19 35
11 0 28 -15 40 -35 15 -26 27 -35 47 -35 29 0 27 3 -18 56 -18 21 -18 22 7 38
31 20 33 58 5 86 -16 16 -33 20 -80 20 l-60 0 0 -100z m88 64 c26 -7 31 -48 6
-58 -36 -14 -54 -7 -54 22 0 41 7 47 48 36z"/>
<path d="M4260 2040 l0 -100 70 0 c63 0 70 2 70 20 0 17 -7 20 -50 20 -43 0
-50 3 -50 19 0 16 8 20 42 23 31 2 44 8 46 21 3 14 -4 17 -42 17 -39 0 -46 3
-46 19 0 17 8 20 47 23 36 2 49 7 51 21 3 15 -5 17 -67 17 l-71 0 0 -100z"/>
<path d="M4480 2040 c0 -93 1 -100 20 -100 18 0 20 7 20 65 0 36 3 65 8 65 4
-1 28 -30 55 -65 30 -42 55 -65 67 -65 19 0 20 7 20 100 0 93 -1 100 -20 100
-17 0 -19 -8 -22 -65 l-3 -66 -49 66 c-36 47 -56 65 -73 65 -23 0 -23 -2 -23
-100z"/>
<path d="M4740 2120 c0 -16 7 -20 35 -20 l35 0 0 -80 c0 -73 2 -80 20 -80 18
0 20 7 20 80 l0 80 29 0 c27 0 47 20 34 34 -4 3 -44 6 -90 6 -76 0 -83 -2 -83
-20z"/>
<path d="M5170 2113 c-17 -37 -70 -165 -70 -169 0 -2 8 -4 19 -4 10 0 26 11
35 25 12 19 25 25 51 25 26 0 39 -6 51 -25 14 -22 54 -36 54 -19 0 3 -19 48
-41 100 -35 78 -46 94 -64 94 -14 0 -26 -10 -35 -27z m50 -52 c16 -31 12 -41
-19 -41 -28 0 -29 1 -18 30 13 35 22 38 37 11z"/>
<path d="M5569 2125 c-57 -31 -61 -114 -7 -160 34 -29 101 -34 133 -11 17 12
17 16 6 30 -10 12 -17 14 -25 6 -16 -16 -71 -12 -89 8 -46 50 6 126 69 102 15
-6 34 -8 42 -5 12 5 12 9 -3 25 -22 24 -87 26 -126 5z"/>
<path d="M5846 2131 c-10 -16 -76 -175 -76 -183 0 -19 41 -6 49 15 8 20 14 22
55 19 34 -3 47 -9 51 -23 4 -12 16 -19 30 -19 l24 0 -36 83 c-19 45 -38 90
-40 100 -6 18 -47 24 -57 8z m37 -58 c2 -10 8 -26 12 -35 6 -15 2 -18 -25 -18
-27 0 -31 3 -25 18 4 9 10 25 12 35 3 9 9 17 13 17 4 0 10 -8 13 -17z"/>
<path d="M6040 2040 c0 -93 1 -100 20 -100 16 0 20 7 20 35 0 47 29 47 61 0
15 -22 32 -35 47 -35 28 0 28 5 -3 42 l-26 31 21 19 c11 10 20 31 20 48 0 41
-32 60 -102 60 l-58 0 0 -100z m101 60 c37 -21 11 -60 -40 -60 -16 0 -21 6
-21 28 0 43 20 53 61 32z"/>
<path d="M4962 2023 c5 -25 91 -24 96 0 3 14 -5 17 -48 17 -43 0 -51 -3 -48
-17z"/>
<path d="M5372 2023 c6 -31 98 -29 98 2 0 11 -13 15 -51 15 -43 0 -50 -3 -47
-17z"/>
</g>
</svg>